<?xml version="1.0" encoding="UTF-8"?>
<svg id="Calque_1" xmlns="http://www.w3.org/2000/svg" version="1.1" viewBox="0 0 1024 899.36">
  <!-- Generator: Adobe Illustrator 29.8.3, SVG Export Plug-In . SVG Version: 2.1.1 Build 3)  -->
  <defs>
    <style>
      .st0 {
        fill: #f6f5f3;
      }
    </style>
  </defs>
  <path class="st0" d="M880.68,566.87c.23-.29.81-.27,1.25-.3,3.21-.06,15.09,2.25,20.93,1.28,12.97-1.39,22.61-12.81,25.39-25.61,3.2-13.82-1.07-29.19-10.44-39.78-26.2-30.19-82.06-19.15-100.87,18.24-6.65,12.72-9.08,27.65-7.68,41.91,5.52,60.69,76.58,95.4,130.47,73.54,56.5-22.12,85.04-91.61,67.51-147.33-17.02-64.05-79.24-105.46-145.07-107.41-47.27-2.36-90.54,15.78-134.72,30.75-73.64,26.35-151.39,31.94-228.51,28.17-15.46-.37-31.19-1.05-46.24-2.47-71.77-8.61-144.71-14.35-217.27-12.62-6.77-.07-13.57-.12-19.61-1.2-.66-.15-1.17-.25-1.77-.51-.46-.2-.68-.42-.64-.63.02-.15.16-.3.41-.45,1.56-.75,2.84-.86,4.77-1.2,11.42-1.58,24.27-1.07,36.04-.77,28.41,1.05,56.37.43,84.49,2.37,98.85,7.36,197.36,22.13,296.04,6.81,15.16-2.31,30.52-5.35,45.47-9.1,74.24-18.76,140.63-58.44,218.15-39.01,36.29,7.94,69.97,29.1,91.11,59.17,38.9,52.26,36.22,130.94-12.21,176.96-43.78,42.55-122.74,40.1-158.3-11.34-17.46-24.85-22.07-59.47-8.32-86.89,7.08-14.46,19-26.4,33.75-32.96,27.32-12.79,65.99-6.02,82.84,20.82,12.33,18.09,10.03,45.19-7.87,58.74-7.27,5.65-16.16,8.22-24.7,6.87-6.1-.94-11.05-3.2-13.17-4.56-.5-.38-1.41-.83-1.24-1.46l.02-.02Z"/>
  <path class="st0" d="M670.45,88.13c8.58,38.98-4.85,81.34-23.57,115.28-52.79,94.72-165.13,121.44-266.66,134.07-40.93,5.76-88.33,7.18-130.31,11.9-83.44,7.45-157.71,29.89-229.5,74.02-27.74,14.9-4.72-3.64,5.97-9.71,61.2-37.57,131.59-58.73,202.58-66.95,26.74-3.65,50.47-5.12,76.09-6.76,34.46-2.73,69.08-6.35,103.27-11.37,87.22-12.68,180.88-42.76,229.57-120.85,19.35-30.4,30.85-66.9,28.95-103.1-1.08-17.15-6.09-37.15-15.91-51.56-32.53-49.1-116.23-53.51-150.45-2.66-10.52,15.08-16.4,33.91-15.33,52.33,1.36,38.3,35.8,71.74,72.95,55.3,19.56-7.91,35.92-32.46,24.97-52.36-2.19-5.2-12.32-14.41-11.95-17.41.09-.13.25-.21.47-.23.81-.08,2.57.61,4.89,2.08,8.57,5.26,15,15.21,15.43,25.63,2.06,23.46-16.96,46.8-40.12,51.35-39.61,8.34-73.95-28.18-72.81-67.15,2.11-114.66,169.85-124.75,191.4-12.09l.06.26Z"/>
  <path class="st0" d="M594.39,810.58c.68-.6,1.32.71,1.9,3.65.39,1.94.75,4.59,1.14,7.67,1.26,31.58,21.36,54.93,52.7,63.02,39.52,10.98,82.61-7.62,102.31-44.94,54.43-105.47-90.12-223.18-171.43-279.06-142.3-91.91-376.42-142.62-535.52-79.46-2.61,1-5.21,2.03-7.79,2.92-6.24,2.21-10.07,3.09-9.9,2.12.06-.79,3.13-2.97,8.43-5.8,1.7-.88,3.37-1.76,5.16-2.59,43.82-19.53,92.68-27.15,140.7-28.76,181.38-2.5,360.77,51.16,491.82,178.65,28.38,27.29,55.54,56.29,74.97,90.56,26.73,45.65,30.68,102.28-5.84,143.68-42.75,49.41-137.83,38.87-150.29-28.07-.92-6.86-1.27-17.96,1.63-23.56l.03-.03Z"/>
  <path class="st0" d="M505.69,602.11c30.41,28.06,54.71,67.64,49.52,110-2.22,19.52-11.08,39.4-26.3,52.03-40.42,34.83-120.61,12.35-110.8-48.35,3.76-22.74,27.82-41.79,50.4-36.15,13.45,3.06,22.12,15.4,22.34,28.52.2,3.72-.17,5.89-.71,5.88-.63.06-1.5-2.6-2.82-6.69-1.48-4.4-3.43-10.29-7.25-14.59-12.92-13.8-36.9-7.29-47.92,6.25-33.9,42.92,25.58,89.71,69.83,73.64,26.93-8.52,47.1-35.45,48.72-63.18,3.87-138.13-237.23-215.26-351.33-214.57-21.9-.73-43.94,3.3-65.94,5.02-6.1.34-9.23-.06-8.4-1.05,115.54-31.22,293.75,23.01,380.48,103.05l.18.17Z"/>
  <path class="st0" d="M869.24,209.1c-44.29,246.97-540.12,140.42-728.95,201.5-14.64,4.32-31.31,12.32-45.11,16.68-20.57,6.08,1.27-6.72,10.94-10.6,24.86-10.7,51.11-17.59,80.28-22.87,119.84-20.55,244.36-7.86,357.35-19.84,23.48-1.03,47.99-3.35,71.5-6.68,33.24-4.75,65.16-9.32,97.56-18.92,56.95-17.11,117.29-48.3,142.91-104.66,3.97-8.76,7.99-22.03,10.57-28.75.57-1.37.98-2.67,1.55-3.85.29-.64.55-1.14.77-1.47.26-.4.47-.58.62-.53h.02Z"/>
  <path class="st0" d="M456.65,242.19c.8.57-1.5,3.41-6.09,7.34-62.99,48.56-158.65,42.71-235.01,56.36-34.27,5.45-67.53,16.18-99.64,29.37-3.26,1.29-6.68,2.58-9.92,3.66-5.29,1.64-8.54,2.78-9.64,1.87-.55-1.4,9.25-6.77,12.67-8.39,11.08-5.43,22.99-9.78,34.51-13.72,25.54-7.95,50.76-15.73,77.26-19.74,47.56-5.81,95.62-8.26,142.88-17.65,30.32-5.73,57-18.26,83.65-35.32,5.17-2.93,8.56-4.35,9.29-3.8l.03.02Z"/>
</svg>